<?xml version="1.0" encoding="UTF-8" standalone="no"?>
<!-- Created with Inkscape (http://www.inkscape.org/) -->

<svg
   width="300"
   height="300"
   viewBox="0 0 79.375 79.375001"
   version="1.1"
   id="svg1"
   inkscape:version="1.3.2 (091e20e, 2023-11-25, custom)"
   sodipodi:docname="georeports_logo.svg"
   xmlns:inkscape="http://www.inkscape.org/namespaces/inkscape"
   xmlns:sodipodi="http://sodipodi.sourceforge.net/DTD/sodipodi-0.dtd"
   xmlns="http://www.w3.org/2000/svg"
   xmlns:svg="http://www.w3.org/2000/svg">
  <sodipodi:namedview
     id="namedview1"
     pagecolor="#ffffff"
     bordercolor="#666666"
     borderopacity="1.0"
     inkscape:showpageshadow="2"
     inkscape:pageopacity="0.0"
     inkscape:pagecheckerboard="true"
     inkscape:deskcolor="#d1d1d1"
     inkscape:document-units="mm"
     inkscape:zoom="3.0116834"
     inkscape:cx="120.03254"
     inkscape:cy="91.145038"
     inkscape:window-width="3840"
     inkscape:window-height="2054"
     inkscape:window-x="-11"
     inkscape:window-y="-11"
     inkscape:window-maximized="1"
     inkscape:current-layer="layer1" />
  <defs
     id="defs1" />
  <g
     inkscape:label="Layer 1"
     inkscape:groupmode="layer"
     id="layer1"
     transform="translate(-73.289582,-124.35417)">
    <g
       id="g1"
       transform="translate(-0.05898308,0.40795024)">
      <path
         d="m 111.45613,172.52387 -0.68936,1.46554 -2.2133,3.55586 c 2.36201,-0.19294 5.19415,-1.84882 6.77374,-3.55586 l -2.79414,-1.24178 z"
         style="fill:#2757A2;stroke-width:0.264583"
         id="path27" />
      <path
         d="m 111.45613,172.52387 1.07694,0.22376 2.79414,1.24178 c -1.57959,1.70704 -4.41173,3.36292 -6.77374,3.55586 l 2.2133,-3.55586 z"
         style="fill:#008242;fill-opacity:1;stroke-width:0.264583"
         id="path26" />
      <path
         d="m 99.663567,172.46496 c -1.304224,0.19261 -2.797947,0.80139 -3.894336,1.52445 1.408491,1.9982 4.349769,2.97247 6.603729,3.55586 -1.1399,-1.62458 -2.2495,-3.0925 -2.709393,-5.08031 z"
         style="fill:#2757A2;stroke-width:0.264583"
         id="path25" />
      <path
         d="m 99.663567,172.46496 c 0.459893,1.98781 1.569493,3.45573 2.709393,5.08031 -2.25396,-0.58339 -5.195238,-1.55766 -6.603729,-3.55586 1.096389,-0.72306 2.590112,-1.33184 3.894336,-1.52445 z"
         style="fill:#008242;fill-opacity:1;stroke-width:0.264583"
         id="path24" />
      <path
         d="m 104.2731,171.63607 c -1.15627,0.0269 -2.28812,0.18137 -3.33933,0.57516 0.65404,2.00996 1.60163,4.51548 3.72536,5.38003 2.36557,0.963 4.06537,-2.19472 4.81314,-3.94084 0.21991,-0.51352 0.47165,-1.04808 0.5209,-1.60869 -1.7984,-0.14194 -3.79294,-0.45057 -5.72007,-0.40566 z"
         style="fill:#008242;fill-opacity:1;stroke-width:0.264583"
         id="path23" />
      <path
         d="m 91.112152,164.16779 c 0.0066,2.37459 0.86999,4.85007 2.100646,6.85798 0.312849,0.51044 0.932947,1.71974 1.543574,1.88722 0.399299,0.10952 1.004996,-0.38263 1.351341,-0.55294 1.027268,-0.5051 2.11931,-0.85547 3.217373,-1.16478 l -0.786514,-5.16454 -0.195855,-1.77561 -1.896525,-0.0873 z"
         style="fill:#008242;fill-opacity:1;stroke-width:0.264583"
         id="path22" />
      <path
         d="m 100.67952,156.2091 c -0.56489,1.49734 -0.729983,3.32325 -0.838703,4.91081 -0.02109,0.30802 -0.194908,1.39649 0.04444,1.59371 0.498063,0.4104 2.273833,0.0997 2.910933,0.0997 2.79236,0 5.58469,-0.0848 8.38192,-0.0848 0,-2.03614 -0.12585,-4.62329 -0.93121,-6.5195 -3.02824,0.78377 -6.54085,0.78334 -9.56738,0 z"
         style="fill:#2757A2;stroke-width:0.264583"
         id="path21" />
      <path
         d="m 100.67952,156.2091 c 3.02653,0.78334 6.53914,0.78377 9.56738,0 0.80536,1.89621 0.93121,4.48336 0.93121,6.5195 -2.79723,0 -5.58956,0.0848 -8.38192,0.0848 -0.63709,0 -2.41286,0.31067 -2.910931,-0.0997 -0.23935,-0.19722 -0.06553,-1.28569 -0.04444,-1.59371 0.10872,-1.58756 0.273811,-3.41347 0.838711,-4.91081 z"
         style="fill:#008242;fill-opacity:1;stroke-width:0.264583"
         id="path20" />
      <path
         d="m 116.17316,154.10122 c -0.416,-0.0413 -1.07268,0.46462 -1.43868,0.64751 -0.96564,0.4825 -2.05771,0.96374 -3.13262,1.12189 0.20141,2.30967 1.00948,4.48923 0.84646,6.85798 h 7.19646 c 0,-2.36569 -0.73216,-4.84819 -1.98334,-6.85798 -0.28201,-0.45298 -0.90149,-1.71108 -1.48828,-1.7694 z"
         style="fill:#2757A2;stroke-width:0.264583"
         id="path19" />
      <path
         d="m 116.17316,154.10122 c 0.58679,0.0583 1.20627,1.31642 1.48828,1.7694 1.25118,2.00979 1.98334,4.49229 1.98334,6.85798 h -7.19646 c 0.16302,-2.36875 -0.64505,-4.54831 -0.84646,-6.85798 1.07491,-0.15815 2.16698,-0.63939 3.13262,-1.12189 0.366,-0.18289 1.02268,-0.68885 1.43868,-0.64751 z"
         style="fill:#008242;fill-opacity:1;stroke-width:0.264583"
         id="path18" />
      <path
         d="m 94.841123,154.09451 c -0.586269,0.0766 -1.248513,1.39698 -1.527556,1.86086 -0.772514,1.28426 -1.429541,2.68635 -1.786453,4.14859 -0.211114,0.86489 -0.210725,1.76677 -0.414962,2.62464 l 2.455664,0.0848 h 4.826061 l 0.183451,-2.70939 0.747758,-4.23334 c -1.052314,-0.24343 -2.077236,-0.65277 -3.047876,-1.12241 -0.36222,-0.17525 -1.029697,-0.70679 -1.436087,-0.6537 z"
         style="fill:#008242;fill-opacity:1;stroke-width:0.264583"
         id="path17" />
      <path
         d="m 102.37296,149.60537 c -2.16244,0.44754 -5.269776,1.61653 -6.603729,3.47111 l 3.894336,1.60869 c 0.629863,-1.93571 1.600833,-3.40361 2.709393,-5.0798 z"
         style="fill:#008242;fill-opacity:1;stroke-width:0.264583"
         id="path16" />
      <path
         d="m 108.46923,149.52062 c 1.07583,1.72022 2.14146,3.16571 2.70888,5.16455 1.3989,-0.28952 2.83313,-0.89008 4.06435,-1.60869 -1.3029,-1.83426 -4.58713,-3.26146 -6.77323,-3.55586 z"
         style="fill:#008242;fill-opacity:1;stroke-width:0.264583"
         id="path15" />
      <path
         d="m 105.4012,149.37748 c -0.1056,0.007 -0.21191,0.0233 -0.31884,0.0522 -2.36854,0.63982 -3.36072,3.47843 -4.14859,5.50974 2.7801,1.04301 6.12464,0.30919 8.97465,0.0842 -0.39092,-1.68973 -1.26035,-3.5464 -2.5399,-4.73356 -0.53001,-0.49175 -1.22808,-0.95837 -1.96732,-0.91261 z"
         style="fill:#008242;fill-opacity:1;stroke-width:0.264583"
         id="path14" />
      <path
         d="m 104.71184,139.47576 c -2.53123,0.0749 -5.051816,0.53174 -7.41867,1.3534 -2.843016,0.98698 -5.507034,2.50717 -7.789706,4.46898 -9.813902,8.43443 -11.05884,23.59154 -2.924368,33.60157 2.406983,2.96196 5.552342,5.26858 9.020635,6.83214 9.573479,4.31588 21.621119,1.71923 28.496459,-6.23941 0.26186,-0.30311 0.62362,-0.62595 0.75034,-1.01596 0.19136,-0.58895 0.0481,-1.4159 0.0481,-2.03192 v -4.23333 c 0,-0.60989 -0.32623,-2.37784 0.50798,-2.4505 0.4659,-0.0406 1.44573,-0.0502 1.8588,0.16692 0.60109,0.31591 1.04118,1.31407 1.41903,1.86035 1.09219,1.57904 2.19052,3.15413 3.2706,4.74131 1.41955,2.08603 2.91024,4.12498 4.37338,6.1805 0.71663,1.00676 1.39386,2.29072 2.5399,2.85564 1.75212,0.86368 4.11928,0.53123 6.01152,0.53123 l -2.68046,-3.9796 -6.18515,-8.88989 -3.24167,-4.65657 c 1.67175,-0.4779 3.2497,-1.70848 4.40955,-2.96364 5.26987,-5.70287 4.53376,-15.23729 -1.61592,-20.00963 -5.28404,-4.10058 -11.6215,-2.12541 -17.69504,-2.77451 -0.67017,-0.0716 -1.42729,-0.68387 -2.03192,-0.98599 -1.16346,-0.58136 -2.39204,-1.05907 -3.6406,-1.4242 -2.40958,-0.70465 -4.95153,-1.01177 -7.48275,-0.93689 z m 0.96635,5.13405 c 1.35258,0.0161 2.71361,0.17888 4.06073,0.49816 1.40402,0.33277 2.79906,0.82089 4.06384,1.52239 0.6946,0.38525 1.57025,1.22816 2.37091,1.27796 2.91027,0.181 5.88863,0.004 8.80515,0.004 2.7804,0 5.41043,0.1343 7.62021,2.05621 4.17548,3.63155 3.87509,11.27011 -1.43919,13.78572 -2.12345,1.00517 -4.31561,0.92191 -6.60425,0.92191 h -8.12767 c -5.54805,0 -11.04131,-0.42323 -16.594855,-0.42323 0,1.6005 0.189275,3.15831 0.412375,4.74131 0.0612,0.43417 0.0765,1.41087 0.41186,1.72341 0.1991,0.18559 0.5536,0.0472 0.78445,0.006 0.67555,-0.1215 1.35437,-0.15181 2.03192,-0.24081 2.29537,-0.30153 4.67853,-0.0645 6.94273,0.37465 0.20388,-1.09817 0.26842,-1.75468 1.60869,-1.35495 l -0.339,1.69343 c 1.14602,0.10007 2.26463,0.69658 3.30212,1.14929 0.31655,0.13812 0.91864,0.58212 1.26659,0.45061 1.4071,-0.53181 1.15358,-3.64002 3.13108,-3.09696 0.62121,0.17059 0.34365,1.91284 0.34365,2.42827 v 3.04788 c 0,0.40837 0.10069,0.97995 -0.0868,1.35495 -0.36631,0.73263 -1.32207,1.38303 -1.9451,1.89498 -10.0276,8.23963 -25.808726,3.68355 -30.229681,-8.41448 -0.666244,-1.82318 -1.097089,-3.81075 -1.097089,-5.75726 0,-2.08213 0.143695,-4.0913 0.760158,-6.09576 0.700916,-2.27905 1.764655,-4.39733 3.257167,-6.26577 3.726005,-4.66449 9.428824,-7.35102 15.290025,-7.2812 z"
         style="fill:#2757A2;fill-opacity:1;stroke-width:0.264583"
         id="path12" />
      <path
         style="fill:#2757A2;fill-opacity:1;stroke-width:0"
         d="m 105.22448,139.47173 c -6.923916,-0.0216 -13.805454,3.09083 -18.273766,8.3952 -4.748354,5.53388 -6.723037,13.27247 -5.303129,20.41492 1.147775,6.25501 4.941481,11.954 10.268877,15.42671 4.096882,2.72399 9.015438,4.26756 13.952758,4.07588 5.8916,-0.0377 11.76866,-2.2731 16.16084,-6.20673 1.02041,-1.01094 2.16297,-1.95912 2.91436,-3.196 0.008,-2.66806 -0.11209,-5.34224 -0.0238,-8.00697 0.0148,-0.55535 0.61549,-0.64058 1.04877,-0.58983 0.71494,-0.0554 1.51459,0.11082 1.89515,0.78736 3.14798,4.66279 6.35375,9.29017 9.65936,13.84196 0.86616,1.17915 2.33505,1.68396 3.75177,1.71567 1.18472,0.0491 2.39253,0.0511 3.5641,-0.0303 -0.60277,-1.10161 -1.42564,-2.15156 -2.12375,-3.22699 -3.26383,-4.77492 -6.61467,-9.48946 -9.86271,-14.27458 2.3259,-0.8636 4.25554,-2.60878 5.62626,-4.6514 2.90128,-4.38665 2.98792,-10.437 0.17483,-14.887 -1.82175,-2.96185 -4.8554,-5.1914 -8.30329,-5.80745 -2.37221,-0.50602 -4.81797,-0.28748 -7.22491,-0.36559 -1.83794,-0.0466 -3.69668,0.0575 -5.52201,-0.1434 -1.52644,-0.73026 -2.98534,-1.62291 -4.61938,-2.1115 -2.49451,-0.83265 -5.13535,-1.1822 -7.76029,-1.15992 z m 0.31986,5.20642 c 3.10088,-0.019 6.27662,0.71796 8.90457,2.40231 0.69927,0.59268 1.57515,0.93516 2.49914,0.8907 3.65206,0.0847 7.31292,-0.11897 10.96046,0.10852 2.40242,0.23513 4.78486,1.42851 6.07676,3.53154 0.9904,1.48639 1.49437,3.29149 1.39109,5.0826 0.13396,3.01001 -1.72541,6.02906 -4.53721,7.16209 -2.04944,0.93456 -4.33849,0.68453 -6.52589,0.75702 -7.27367,0.0571 -14.54811,-0.0531 -21.8155,-0.36402 -0.88565,-0.0293 -1.77142,-0.0548 -2.657128,-0.0823 -0.166823,0.5428 0.03902,1.22743 0.03761,1.82497 0.168168,1.51652 0.274448,3.05671 0.645498,4.53876 0.21999,0.56178 0.91913,0.14653 1.34252,0.17079 2.65006,-0.37652 5.35057,-0.39329 7.9932,0.058 0.31886,0.11684 0.74716,0.0435 0.67329,-0.38221 0.0921,-0.44116 0.3431,-1.11825 0.92402,-0.94656 0.27711,0.0124 0.70278,0.0355 0.47013,0.43097 -0.0187,0.42247 -0.30829,0.92006 -0.14375,1.31636 1.42918,0.35412 2.7685,0.98295 4.09863,1.61141 0.63278,0.19806 0.99825,-0.59883 1.28548,-1.01674 0.47087,-0.66939 0.62347,-1.71228 1.45569,-2.04299 0.42133,-0.12609 1.0834,-0.0267 1.08228,0.52895 -0.026,2.01899 0.0898,4.0491 -0.0758,6.06249 -0.18345,0.86213 -1.07894,1.29322 -1.65221,1.88022 -3.332,2.75964 -7.62897,4.37481 -11.96222,4.34164 -3.64843,0.0686 -7.302617,-0.98957 -10.437723,-2.85066 -3.492738,-2.09617 -6.343999,-5.30774 -7.845227,-9.11243 -1.76505,-4.25945 -1.727297,-9.18721 -0.192548,-13.49906 1.127988,-3.22271 3.22544,-6.04757 5.88246,-8.17813 3.381875,-2.73629 7.762248,-4.3011 12.122368,-4.22429 z"
         id="path28" />
    </g>
  </g>
</svg>
